<?xml version="1.0" standalone="no"?>
<!DOCTYPE svg PUBLIC "-//W3C//DTD SVG 20010904//EN"
 "http://www.w3.org/TR/2001/REC-SVG-20010904/DTD/svg10.dtd">
<svg version="1.0" xmlns="http://www.w3.org/2000/svg"
 width="700.000000pt" height="700.000000pt" viewBox="0 0 700.000000 700.000000"
 preserveAspectRatio="xMidYMid meet">
<metadata>
Created by potrace 1.14, written by Peter Selinger 2001-2017
</metadata>
<g transform="translate(0.000000,700.000000) scale(0.100000,-0.100000)"
fill="#000000" stroke="none">
<path d="M0 3500 l0 -3500 3500 0 3500 0 0 220 0 220 -3280 0 -3280 0 0 3280
0 3280 -220 0 -220 0 0 -3500z"/>
<path d="M4528 5676 c-95 -34 -141 -95 -146 -196 -6 -95 25 -150 113 -206 28
-18 65 -19 706 -24 l677 -5 -675 -825 c-371 -454 -713 -872 -760 -929 l-85
-103 -592 590 c-475 474 -599 592 -630 602 -57 18 -147 9 -191 -21 -25 -17
-304 -392 -927 -1248 -490 -673 -897 -1239 -904 -1257 -19 -46 -17 -121 5
-169 53 -114 191 -159 302 -99 44 25 109 111 854 1135 444 610 810 1109 813
1109 4 0 268 -261 587 -579 573 -572 581 -580 638 -596 35 -10 70 -14 90 -10
96 20 71 -8 913 1023 l799 977 5 -590 c5 -586 5 -590 27 -632 41 -76 118 -123
204 -123 54 0 139 48 174 98 l30 44 3 937 2 938 -28 54 c-20 39 -41 62 -77 84
l-48 30 -921 2 c-751 2 -928 0 -958 -11z"/>
</g>
</svg>
